<svg width="44" height="44" viewBox="0 0 44 44" fill="none" xmlns="http://www.w3.org/2000/svg">
<g opacity="0.4">
<path d="M21.1113 13C25.5909 13.0001 29.2227 16.6318 29.2227 21.1113C29.2225 25.5908 25.5908 29.2225 21.1113 29.2227C16.6318 29.2227 13.0001 25.5909 13 21.1113C13 16.6317 16.6317 13 21.1113 13ZM21.1113 15C17.7363 15 15 17.7363 15 21.1113C15.0001 24.4863 17.7363 27.2227 21.1113 27.2227C24.4862 27.2225 27.2225 24.4862 27.2227 21.1113C27.2227 17.7363 24.4863 15.0001 21.1113 15Z" fill="#4F4F4F"/>
<path d="M30.7076 29.2929C31.0981 29.6834 31.0981 30.3165 30.7076 30.7071C30.317 31.0976 29.6839 31.0976 29.2933 30.7071L25.4267 26.8404C25.0362 26.4499 25.0362 25.8167 25.4267 25.4262C25.8172 25.0357 26.4504 25.0357 26.8409 25.4262L30.7076 29.2929Z" fill="#4F4F4F"/>
</g>
</svg>
