<svg width="44" height="44" viewBox="0 0 44 44" fill="none" xmlns="http://www.w3.org/2000/svg">
<g opacity="0.4" clip-path="url(#clip0_1379_1755)">
<path d="M25 32.065V27.065C25 26.2693 24.6839 25.5063 24.1213 24.9437C23.5587 24.3811 22.7956 24.065 22 24.065C21.2044 24.065 20.4413 24.3811 19.8787 24.9437C19.3161 25.5063 19 26.2693 19 27.065V32.065H14C13.4696 32.065 12.9609 31.8543 12.5858 31.4792C12.2107 31.1041 12 30.5954 12 30.065V19.197C12 18.8516 12.0894 18.5121 12.2596 18.2116C12.4298 17.911 12.6748 17.6597 12.971 17.482L20.971 12.682C21.2818 12.4955 21.6375 12.397 22 12.397C22.3625 12.397 22.7182 12.4955 23.029 12.682L31.029 17.482C31.3252 17.6597 31.5702 17.911 31.7404 18.2116C31.9106 18.5121 32 18.8516 32 19.197V30.065C32 30.5954 31.7893 31.1041 31.4142 31.4792C31.0391 31.8543 30.5304 32.065 30 32.065H25Z" fill="#4F4F4F"/>
</g>
<defs>
<clipPath id="clip0_1379_1755">
<rect width="24" height="24" fill="white" transform="translate(10 10)"/>
</clipPath>
</defs>
</svg>
