<svg width="39" height="42" viewBox="0 0 39 42" fill="none" xmlns="http://www.w3.org/2000/svg">
<path d="M22.1599 29.1357C21.9478 30.4473 20.7934 31.45 19.4012 31.4502C18.0087 31.4502 16.8536 30.4474 16.6414 29.1357C17.4787 29.2081 18.3975 29.25 19.4012 29.25C20.4045 29.25 21.3227 29.2081 22.1599 29.1357ZM19.4012 10C23.1044 10.0002 26.106 12.9548 26.1062 16.5996V19.4287C26.1063 20.4485 26.4427 21.4409 27.0642 22.2568L28.4842 24.1201C29.0274 24.8331 28.8692 25.8099 28.0379 26.1631C26.5418 26.7985 23.7857 27.5996 19.4012 27.5996C15.0164 27.5996 12.2596 26.7986 10.7635 26.1631C9.93225 25.8099 9.77392 24.8331 10.3172 24.1201L11.7371 22.2568C12.3587 21.4409 12.6951 20.4485 12.6951 19.4287V16.5996C12.6953 12.9547 15.6977 10 19.4012 10Z" fill="#96A7AF"/>
</svg>
