<svg width="45" height="45" viewBox="0 0 45 45" fill="none" xmlns="http://www.w3.org/2000/svg">
<path fill-rule="evenodd" clip-rule="evenodd" d="M19.375 12.0833C23.4021 12.0833 26.6667 15.3479 26.6667 19.375C26.6667 23.4021 23.4021 26.6667 19.375 26.6667C18.4998 26.6667 17.6627 26.5129 16.888 26.2318C16.5465 26.1079 16.1667 26.0802 15.7963 26.1712C14.8014 26.4156 13.7858 26.5706 12.7615 26.6339C13.1467 25.6191 13.2798 24.522 13.1444 23.4383C13.1142 23.1973 13.0354 22.9859 12.9417 22.8109C12.3942 21.7882 12.0833 20.6195 12.0833 19.375C12.0833 15.3479 15.3479 12.0833 19.375 12.0833ZM28.75 19.375C28.75 14.1973 24.5527 10 19.375 10C14.1973 10 10 14.1973 10 19.375C10 20.9549 10.3916 22.4464 11.084 23.7546C11.192 24.719 10.9918 25.696 10.5076 26.5433L10.4649 26.6181C9.92208 27.568 10.608 28.75 11.7021 28.75C13.2311 28.75 14.7514 28.5678 16.2312 28.2096C17.2153 28.5598 18.274 28.75 19.375 28.75C24.5527 28.75 28.75 24.5527 28.75 19.375ZM31.2033 18.6022C30.7636 18.9732 30.7078 19.6303 31.0788 20.0701C32.2261 21.4302 32.9167 23.1852 32.9167 25.1042C32.9167 26.4402 32.5822 27.695 31.9932 28.7925C31.8988 28.9684 31.8204 29.1796 31.7901 29.4193C31.6412 30.597 31.7936 31.7901 32.2283 32.8878C31.0967 32.8241 29.9746 32.6555 28.8762 32.3848C28.5055 32.2934 28.1248 32.3209 27.7821 32.4459C26.9482 32.7502 26.0468 32.9167 25.1042 32.9167C23.1852 32.9167 21.4302 32.2261 20.0701 31.0788C19.6303 30.7078 18.9732 30.7636 18.6022 31.2034C18.2313 31.6431 18.287 32.3003 18.7268 32.6712C20.4486 34.1237 22.6754 35 25.1042 35C26.2732 35 27.3971 34.7968 28.4409 34.423C30.0141 34.8055 31.6307 35 33.2566 35C34.3691 35 35.0665 33.7982 34.5146 32.8322L34.5146 32.8322L34.4692 32.7528C33.9459 31.8369 33.7306 30.7803 33.85 29.738C34.5844 28.3545 35 26.7763 35 25.1042C35 22.6754 34.1237 20.4486 32.6712 18.7268C32.3003 18.287 31.6431 18.2313 31.2033 18.6022ZM15.2083 20.4167C15.7836 20.4167 16.25 19.9503 16.25 19.375C16.25 18.7997 15.7836 18.3333 15.2083 18.3333C14.633 18.3333 14.1667 18.7997 14.1667 19.375C14.1667 19.9503 14.633 20.4167 15.2083 20.4167ZM20.4167 19.375C20.4167 19.9503 19.9503 20.4167 19.375 20.4167C18.7997 20.4167 18.3333 19.9503 18.3333 19.375C18.3333 18.7997 18.7997 18.3333 19.375 18.3333C19.9503 18.3333 20.4167 18.7997 20.4167 19.375ZM23.5417 20.4167C24.117 20.4167 24.5833 19.9503 24.5833 19.375C24.5833 18.7997 24.117 18.3333 23.5417 18.3333C22.9664 18.3333 22.5 18.7997 22.5 19.375C22.5 19.9503 22.9664 20.4167 23.5417 20.4167Z" fill="#96A7AF"/>
</svg>
